<?xml version="1.0" encoding="iso-8859-1"?>
<svg version="1.1" id="Capa_1" xmlns="http://www.w3.org/2000/svg" xmlns:xlink="http://www.w3.org/1999/xlink" x="0px" y="0px"
	 width="490.728px" height="490.728px" viewBox="0 0 490.728 490.728" style="enable-background:new 0 0 490.728 490.728;"
	 xml:space="preserve">
<g>
	<path fill="#fff" d="M168.19,289.146l8.636,8.634L40.309,434.284L0,393.978l136.501-136.51l8.642,8.635l133.054-133.052l-4.841-4.837
		l6.909-6.908l4.833,4.842l23.043,23.04l3.796,3.8l-6.906,6.903l-3.797-3.8L168.19,289.146z M171.641,222.324l23.096-23.098
		l32.137-32.14l23.098-23.097l-8.644-8.635l-23.094,23.097c-9.023-5.201-20.728-4.035-28.449,3.686
		c-7.721,7.721-8.886,19.42-3.682,28.449L163,213.684L171.641,222.324z M290.289,184.31l-3.448-3.458l-78.335,78.335l12.093,12.099
		l0.065-0.078c0.131,0.166,0.219,0.357,0.367,0.51c3.579,3.579,10.994,1.964,16.561-3.606c5.566-5.56,7.173-12.975,3.598-16.558
		c-0.145-0.143-0.343-0.229-0.499-0.359l23.968-23.966c63.915,51.253,111.455,42.904,111.455,42.904l-77.179-77.18L290.289,184.31z
		 M359.412,61.042l-8.646,8.642l-13.242-13.24l-41.467,41.463l13.242,13.246l-14.97,14.979l23.616,23.617l18.429-18.43
		l24.771,33.979l125.557,125.565l4.025-28.22C472.299,154.359,359.412,61.042,359.412,61.042z"/>
</g>

</svg>
